<?xml version="1.0" encoding="UTF-8"?>
<!DOCTYPE svg PUBLIC "-//W3C//DTD SVG 1.1//EN" "http://www.w3.org/Graphics/SVG/1.1/DTD/svg11.dtd">
<!-- Creator: CorelDRAW -->
<svg xmlns="http://www.w3.org/2000/svg" xml:space="preserve" width="234px" height="137px" style="shape-rendering:geometricPrecision; text-rendering:geometricPrecision; image-rendering:optimizeQuality; fill-rule:evenodd; clip-rule:evenodd"
viewBox="102 82 93 46"
 xmlns:xlink="http://www.w3.org/1999/xlink">
 <defs>
  <style type="text/css">
   <![CDATA[
    .fil0 {fill:#4D4948}
    .fil2 {fill:#4D4948;fill-rule:nonzero}
    .fil1 {fill:#00AAE3;fill-rule:nonzero}
   ]]>
  </style>
 </defs>
 <g id="Слой_x0020_1">
  <metadata id="CorelCorpID_0Corel-Layer"/>
  <g id="_120779536">
   <path id="_120779752" class="fil0" d="M170.067 104.244c-0.1433,-0.1614 -0.3219,-0.3215 -0.4632,-0.4509 -0.1754,-0.1606 -0.3595,-0.3192 -0.5275,-0.4871 -0.3657,-0.3656 -0.7508,-0.711 -1.1165,-1.0767 -0.3625,-0.3623 -0.7241,-0.7237 -1.0959,-1.0767 -0.2501,-0.2375 -0.5057,-0.4757 -0.7709,-0.6963 -0.1434,-0.1193 -0.4237,-0.3603 -0.6177,-0.3603l-0.1567 0c-0.2897,0 -1.2771,0.6419 -1.5421,0.8097 -0.2781,0.1762 -0.5542,0.356 -0.8278,0.5391 -0.168,0.1124 -0.3435,0.2273 -0.5049,0.3488 -0.9241,0.6958 -1.744,1.6607 -1.744,2.8801 0,0.2636 0.0745,0.4717 0.1429,0.6977 -0.4135,0.1214 -0.8081,0.2925 -1.2392,0.3773 -0.5438,0.107 -1.0944,0.1818 -1.6496,0.1818 -1.1001,0 -2.5731,-0.3492 -3.5066,-0.9214 -0.4726,-0.2896 -0.9209,-0.5988 -1.3743,-0.9168 -0.4836,-0.3393 -1.1769,-0.6679 -1.7786,-0.6679l-0.3134 0c-1.0967,0 -1.8707,0.8974 -2.2873,1.8196 -0.3971,0.8792 -0.6873,1.8423 -0.9926,2.7584 -0.6334,1.8994 -1.3389,4.2118 -1.3389,6.2258l0 0.1175c0,0.9014 0.1518,1.4583 0.6268,2.1841 0,1.5174 -0.0007,3.0347 -0.0009,4.552 -0.0003,1.5351 1.3981,2.2665 2.7785,2.2665l33.3368 0c2.3135,0 4.8069,-0.2095 6.9696,-1.086 1.8035,-0.7311 4.0345,-2.0586 4.0345,-4.2749l0 -0.509c0,-1.6164 -0.6954,-2.8686 -2.0871,-3.6726 -1.1986,-0.6923 -2.5088,-1.1815 -3.7889,-1.6988 -1.2905,-0.5215 -2.5665,-1.0783 -3.8631,-1.5847 -0.2445,-0.0955 -0.4883,-0.2033 -0.7296,-0.3066 -0.38,-0.1627 -0.7597,-0.326 -1.1401,-0.4876 -0.4176,-0.1773 -0.8365,-0.3541 -1.2585,-0.521 -0.0977,-0.0387 -0.2567,-0.1048 -0.4132,-0.161 0.0549,-0.07 0.1093,-0.141 0.1582,-0.2166 0.1497,-0.2315 0.2341,-0.4708 0.2341,-0.749l0 -0.0783c0,-0.5881 -0.4757,-1.0145 -1.0539,-1.0145 -0.4869,0 -1.4201,0.6565 -1.9097,0.9901l-0.3227 -0.1247c0.2517,-0.3261 0.3875,-0.5535 0.3875,-0.9865l0 -0.0392c0,-0.5439 -0.47,-1.0144 -1.0148,-1.0144 -0.3912,0 -0.8405,0.2681 -1.1608,0.4754 -0.2484,0.1609 -0.5122,0.3654 -0.7711,0.5163l-0.3344 -0.1457c0.0578,-0.073 0.1155,-0.1466 0.1662,-0.2264 0.1467,-0.2305 0.216,-0.4668 0.216,-0.7408 0,-0.5598 -0.4452,-1.0535 -1.0147,-1.0535 -0.359,0 -0.733,0.2023 -1.0287,0.3906 -0.1993,0.1269 -0.3884,0.2662 -0.5824,0.4004 -0.0527,0.0365 -0.2095,0.1461 -0.2916,0.1798 -0.0632,-0.0263 -0.1244,-0.0575 -0.1865,-0.0868 0.0556,-0.0705 0.1171,-0.1395 0.1523,-0.1865 0.1969,-0.2621 0.2878,-0.528 0.2878,-0.8578 0,-0.5848 -0.4692,-1.0536 -1.0539,-1.0536 -0.4472,0 -1.1746,0.502 -1.6369,0.8196zm2.4943 3.1873c-0.1699,0.1863 -0.3611,0.3671 -0.5139,0.5539 -0.3369,0.4119 -0.5356,0.8465 -0.5356,1.3875l0 0.3132c0,1.2004 1.4994,1.8325 2.4,2.2823 0.4927,0.2461 1.0189,0.4731 1.5239,0.6933 0.2936,0.1281 1.3896,0.6233 1.6742,0.6233 0.246,0 1.0877,-0.3874 1.3365,-0.4967 0.3852,-0.1693 0.7748,-0.3572 1.1635,-0.5148 0.3973,-0.1612 0.7975,-0.3509 1.1903,-0.5252 0.2553,-0.1132 0.5106,-0.2263 0.7671,-0.3369 0.1065,-0.046 0.2518,-0.1161 0.369,-0.1556 0.0921,0.0256 0.2114,0.0759 0.292,0.1064 0.2371,0.0898 0.4729,0.1838 0.7081,0.2781 0.6686,0.2682 1.3348,0.5431 2.0005,0.8185 0.6285,0.26 1.2564,0.5213 1.8845,0.7821 0.3746,0.1556 0.7504,0.3157 1.1278,0.4642 0.4823,0.1899 0.9667,0.3737 1.4462,0.5709 0.5024,0.2068 1.0526,0.4387 1.5163,0.7216 0.9837,0.6 1.5388,1.0414 1.594,2.2149l-3.6574 0.5976c-0.664,-1.102 -2.2988,-1.726 -3.4892,-1.9383 -0.4076,-0.0726 -0.8223,-0.1125 -1.2347,-0.1125l-0.7521 -0.0108 -5.8771 0.324 -0.2678 0c-0.6979,0 -1.4001,-0.0592 -2.0911,-0.1551 -1.3552,-0.188 -2.847,-0.5362 -4.1164,-1.0538 -0.8947,-0.3648 -1.8106,-0.6756 -2.6989,-1.056 -0.8759,-0.3751 -1.7599,-0.7392 -2.6106,-1.1693 -1.6734,-0.846 -3.3774,-1.629 -5.0544,-2.4673 -1.5145,-0.7573 -3.8205,-2.165 -5.5226,-2.165l-0.0783 0c-0.9025,0 -1.6886,0.5213 -2.3071,1.1347 -0.538,0.5337 -1.1768,0.9576 -1.7228,1.4844 -0.2673,0.2581 -0.5449,0.5092 -0.8239,0.7545 -0.2795,0.2458 -0.571,0.4993 -0.8701,0.7207 -0.4702,0.3481 -0.8702,0.803 -1.3142,1.1849 0.0209,-0.1514 0.0439,-0.3027 0.0679,-0.4536 0.0331,-0.208 0.0682,-0.4162 0.1082,-0.623 0.0158,-0.0815 0.0381,-0.22 0.0666,-0.3073 0.0557,-0.0539 0.1367,-0.1146 0.1928,-0.1598 0.1338,-0.1079 0.2693,-0.2139 0.4048,-0.3196 0.2165,-0.1688 0.444,-0.3363 0.6546,-0.5114 0.3964,-0.3293 0.8256,-0.6083 1.217,-0.9514 0.5292,-0.464 1.0318,-1.0579 1.0318,-1.8001l0 -0.2349c0,-0.9001 -0.738,-1.8023 -1.4545,-2.3387 0.1798,-0.291 0.4335,-0.5715 0.7871,-0.5954 0.4431,-0.0301 0.9758,0.3406 1.322,0.5845 0.2791,0.1966 0.5567,0.4083 0.8524,0.5791 1.2804,0.7397 2.7985,1.336 4.2945,1.336l0.47 0c1.0972,0 2.0773,-0.1901 3.114,-0.5356 0.2507,-0.0835 0.506,-0.2298 0.7516,-0.2947 0.1474,-0.039 0.2787,-0.0359 0.4265,0.0011 0.4805,0.1204 0.9612,0.2402 1.4418,0.3603 0.9524,0.238 1.9072,0.4668 2.8597,0.7048 0.4718,0.1179 0.9422,0.2549 1.4133,0.3781 0.3008,0.0787 0.6031,0.1559 0.9068,0.2232 0.1899,0.0421 0.449,0.1026 0.6426,0.1026l0.0784 0c0.3008,0 0.632,-0.3259 0.8335,-0.5255 0.0935,-0.0927 0.1847,-0.1877 0.2775,-0.281 0.1311,0.216 0.3513,0.3758 0.6126,0.3758l0.1175 0c0.1947,0 0.517,-0.214 0.6801,-0.3195 0.1072,-0.0692 0.2129,-0.1404 0.3192,-0.211 0.0163,-0.0108 0.0347,-0.0236 0.054,-0.0367zm-24.4192 7.9754c-0.0147,-0.0282 -0.029,-0.0569 -0.0409,-0.0833 0.0406,-0.0445 0.0918,-0.0928 0.1234,-0.1238 0.1257,-0.1234 0.256,-0.243 0.3863,-0.3614 0.3629,-0.3297 0.7331,-0.6525 1.1032,-0.9741 0.3611,-0.3139 0.7236,-0.6262 1.0847,-0.94 0.213,-0.1851 0.4494,-0.3796 0.6488,-0.5783 0.5307,-0.5291 1.1537,-1.0108 1.7292,-1.4936 0.4317,-0.3623 1.2482,-1.2482 1.8391,-1.2482l0.235 0c1.1683,0 3.9999,1.6544 5.1327,2.2207 0.8285,0.4143 1.6665,0.8092 2.4937,1.2263 0.8398,0.4235 1.7068,0.7895 2.546,1.2138 0.9235,0.4669 1.8785,0.8891 2.8366,1.2797 0.8175,0.3333 1.6469,0.6463 2.4848,0.9247 0.9769,0.3246 1.956,0.6233 2.9642,0.8364 1.1298,0.2389 2.2633,0.3633 3.4183,0.3649l0.0032 0.0527 6.254 -0.366 0.6984 0c0.5891,0 1.2648,0.0991 1.8214,0.2864 0.2239,0.0753 0.4519,0.1697 0.6648,0.2716 0.0396,0.019 0.1156,0.057 0.2003,0.1034 -0.6237,0.0518 -1.2415,0.1591 -1.8682,0.1668 -0.8351,0.0103 -1.686,0.0967 -2.5197,0.1591 -0.8551,0.0639 -1.7478,0.052 -2.6059,0.0397 -0.4178,-0.006 -0.8352,-0.0082 -1.253,-0.0185 -0.2468,-0.0061 -0.494,-0.0142 -0.7404,-0.0289 -0.1721,-0.0102 -0.3593,-0.0214 -0.5289,-0.0522 -0.8107,-0.1475 -1.6558,-0.0792 -2.4669,-0.2042 -0.7935,-0.1222 -1.5983,-0.1501 -2.3902,-0.2731 -1.5381,-0.239 -3.0863,-0.4353 -4.6129,-0.7418 -1.4428,-0.2898 -2.9029,-0.5553 -4.3112,-0.9879 -0.8875,-0.2728 -1.8955,-0.4373 -2.8169,-0.5449 -0.6464,-0.0756 -1.3059,-0.1261 -1.9569,-0.126 -3.5187,0.0003 -7.0374,0 -10.5561,0zm4.1269 1.5971c0.9156,-0.0039 1.8312,-0.0192 2.7468,-0.0283 1.4153,-0.014 2.8379,-0.017 4.2512,0.0688 1.2294,0.0748 2.5133,0.2168 3.7005,0.5547 0.8606,0.2449 1.6818,0.5388 2.4888,0.9266 0.5287,0.2541 1.0405,0.5401 1.5461,0.837 0.7597,0.4462 2.079,1.5239 2.7827,2.3485l-17.5253 0c0.0736,-0.0636 0.1478,-0.1264 0.2219,-0.189 0.2069,-0.1747 0.4322,-0.3526 0.627,-0.5395 0.1591,-0.1526 0.3742,-0.2878 0.5468,-0.4351 0.3377,-0.2879 0.6376,-0.6703 0.4654,-1.137 -0.0707,-0.1915 -0.406,-0.5985 -0.5395,-0.7681 -0.1741,-0.2211 -0.3514,-0.4414 -0.5319,-0.6574 -0.1758,-0.2104 -0.3484,-0.4245 -0.5171,-0.6406 -0.0781,-0.1001 -0.1735,-0.2192 -0.2634,-0.3406zm12.5365 2.7066c0,-1.0311 -0.844,-1.7193 -1.8373,-1.7193l-6.2287 0c-0.9175,0 -1.8374,0.6192 -1.8374,1.6018l0 0.2741c0,0.7803 0.8395,1.5235 1.6024,1.5235l6.7379 0c0.8328,0 1.5631,-0.8751 1.5631,-1.6801zm-8.2851 0.0819c-0.0193,-0.022 -0.0313,-0.0736 -0.033,-0.0979 -0.0055,-0.077 0.0176,-0.1052 0.0954,-0.1052l6.5029 0c0.0474,0 0.1212,0.0236 0.1212,0.082 0,0.058 -0.0145,0.1211 -0.0821,0.1211l-6.6044 0zm35.761 -0.9527c-0.632,1.2622 -3.1051,2.0795 -4.2501,2.3775 -1.1008,0.2866 -2.3387,0.494 -3.4784,0.494l-12.7469 0c-0.0904,-0.0822 -0.2382,-0.2789 -0.2978,-0.3562 -0.1189,-0.1542 -0.2312,-0.3121 -0.3478,-0.4677 -0.2514,-0.3353 -0.5548,-0.6241 -0.8502,-0.9194 -0.2954,-0.2953 -0.5943,-0.5708 -0.9158,-0.8377 -0.0708,-0.0588 -0.144,-0.1163 -0.2178,-0.1732 0.7723,0.1464 1.5552,0.2596 2.329,0.3619 0.8538,0.1129 1.7096,0.2099 2.5655,0.305 1.1314,0.1256 2.2687,0.2231 3.4057,0.2813 0.9737,0.0499 1.9568,0.073 2.9313,0.0349 0.5446,-0.0214 1.092,-0.0005 1.637,0.0021 0.5352,0.0025 1.0711,-0.0813 1.6057,-0.0788 1.0435,0.0047 2.0653,-0.2188 3.0998,-0.2344 0.9971,-0.015 2.011,-0.236 3.0016,-0.3534 0.4916,-0.0583 0.9816,-0.145 1.4696,-0.228 0.2288,-0.0389 0.4574,-0.091 0.6852,-0.1365 0.1121,-0.0224 0.2435,-0.0501 0.3744,-0.0714zm-39.9887 0.7655c-0.0373,0.0343 -0.0753,0.0677 -0.1058,0.0957 -0.1354,0.1241 -0.2729,0.2463 -0.4108,0.3678 -0.2116,0.1863 -0.4344,0.39 -0.656,0.5632 -0.2265,0.177 -0.4526,0.4049 -0.6706,0.5973 -0.1064,0.094 -0.4884,0.4315 -0.6228,0.482l-0.5694 0c-0.3092,0 -0.6697,-0.3601 -0.6697,-0.6694l0 -4.0369 1.6451 0c0.0328,0.0339 0.067,0.0746 0.0928,0.1039 0.0913,0.1036 0.1801,0.2098 0.2681,0.3161 0.2449,0.2959 0.4847,0.5966 0.7222,0.8983 0.2392,0.3038 0.4766,0.6095 0.7091,0.9184 0.0833,0.1107 0.1664,0.2219 0.2469,0.3347 0.0066,0.0091 0.0136,0.0188 0.0209,0.0289zm23.234 -11.024l1.1199 0.4722c-0.1274,0.1318 -0.1989,0.286 -0.1989,0.476 0,0.3952 0.3748,0.8187 0.7797,0.8187l0.0392 0c0.2634,0 0.8125,-0.3793 1.1232,-0.5762l1.4997 0.6443 -2.7762 1.2089c-0.2613,-0.1195 -0.5389,-0.2253 -0.8033,-0.3325 -0.4273,-0.1733 -0.8541,-0.3482 -1.2755,-0.5356 -0.476,-0.2118 -0.9817,-0.4486 -1.4189,-0.7324 -0.1189,-0.0772 -0.5444,-0.3707 -0.5444,-0.5344 0,-0.2514 0.2443,-0.6071 0.5096,-0.8973 0.1004,0.3148 0.4219,0.5804 0.7477,0.5804 0.3304,0 0.8653,-0.3683 1.1982,-0.5921zm-7.3598 -3.0666c-0.1153,0.1263 -0.1807,0.2721 -0.1807,0.4515 0,0.1786 0.0592,0.3574 0.1618,0.5021l-4.1971 -1.0257c0.0416,-0.0378 0.08,-0.0719 0.107,-0.0965 0.13,-0.1188 0.272,-0.2378 0.3959,-0.3617 0.2041,-0.204 0.5133,-0.5099 0.8256,-0.5099l0.1175 0c0.4729,0 1.1352,0.3146 1.5606,0.5133 0.2513,0.1175 0.5092,0.2285 0.7643,0.3376 0.0923,0.0394 0.2696,0.1189 0.4451,0.1893zm0.9453 1.1892c0.2534,-0.1141 0.5853,-0.3244 0.7824,-0.4674l0.0328 0.014 -0.5603 0.5157 -0.2549 -0.0623zm-2.4792 -3.5672c-0.3916,-0.1636 -0.7673,-0.2604 -1.1969,-0.2604l-0.1175 0c-0.7686,0 -1.3388,0.3848 -1.8787,0.8867 -0.2027,0.1884 -0.4047,0.3852 -0.62,0.559 -0.1659,0.1339 -0.3389,0.2485 -0.5195,0.3542 -0.0013,-0.0139 -0.002,-0.0277 -0.002,-0.0414 0,-0.6463 0.7059,-1.3099 1.1937,-1.6516 0.3,-0.2102 0.6285,-0.4108 0.9379,-0.6084 0.2022,-0.129 0.4047,-0.2577 0.6084,-0.3844 0.0656,-0.0408 0.1446,-0.0934 0.2203,-0.1383 0.1046,0.0874 0.2206,0.2016 0.3059,0.2798 0.249,0.2279 0.4953,0.4592 0.7401,0.6915 0.1097,0.1041 0.2192,0.2085 0.3283,0.3133zm-17.6412 6.1804l0.6966 -2.1425c0.3723,0.3379 0.7275,0.8779 0.3341,1.2847 -0.0851,0.088 -0.1933,0.1759 -0.287,0.255 -0.1596,0.135 -0.3219,0.2674 -0.4851,0.3981 -0.0858,0.0687 -0.1719,0.137 -0.2586,0.2047z"/>
   <path id="_120779680" class="fil1" d="M102.349 82.8322c0,-0.7842 0.1488,-1.489 0.4416,-2.1142 0.2976,-0.6254 0.6998,-1.1562 1.206,-1.5932 0.5111,-0.4317 1.1015,-0.7641 1.7667,-0.9923 0.6698,-0.2285 1.3795,-0.3426 2.124,-0.3426 0.7444,0 1.4539,0.1141 2.1289,0.3426 0.675,0.2282 1.2654,0.5557 1.7768,0.9874 0.5061,0.4318 0.913,0.9579 1.2107,1.5831 0.3029,0.6254 0.4517,1.3352 0.4517,2.1292l0 10.6596c0,0.7842 -0.1488,1.489 -0.4517,2.1142 -0.2977,0.6254 -0.7046,1.1565 -1.2107,1.5932 -0.5114,0.4317 -1.1018,0.7641 -1.7768,0.9923 -0.675,0.2285 -1.3845,0.3426 -2.1289,0.3426 -0.7445,0 -1.4542,-0.1191 -2.124,-0.3574 -0.6652,-0.2383 -1.2556,-0.5707 -1.7667,-1.0074 -0.5062,-0.4366 -0.9084,-0.9677 -1.206,-1.588 -0.2928,-0.6205 -0.4416,-1.3152 -0.4416,-2.0895l0 -10.6596zm3.985 10.4514c0,0.2331 0.0348,0.4564 0.0991,0.6649 0.0695,0.2084 0.1688,0.392 0.2979,0.551 0.1338,0.1587 0.2928,0.2878 0.4862,0.3869 0.1937,0.0944 0.417,0.1439 0.6701,0.1439 0.5111,0 0.9031,-0.1587 1.1762,-0.4813 0.2728,-0.3176 0.4068,-0.7097 0.4068,-1.1762l0 -10.3223c0,-0.2334 -0.0347,-0.4517 -0.0993,-0.6651 -0.0695,-0.2134 -0.1737,-0.4019 -0.3075,-0.5708 -0.1341,-0.1636 -0.298,-0.2927 -0.4914,-0.392 -0.1934,-0.0942 -0.4118,-0.1439 -0.655,-0.1439 -0.2531,0 -0.4766,0.0497 -0.6701,0.1439 -0.1934,0.0993 -0.3573,0.2284 -0.4914,0.392 -0.1338,0.1689 -0.238,0.3574 -0.3124,0.5708 -0.0744,0.2134 -0.1092,0.4317 -0.1092,0.6651l0 10.2331zm9.9268 -14.6253c0,-0.1734 0.0446,-0.3124 0.1289,-0.4117 0.0894,-0.1043 0.2134,-0.1538 0.3822,-0.1538l5.2505 0c0.7641,0 1.4788,0.139 2.1338,0.4118 0.6602,0.2779 1.2309,0.655 1.7024,1.1316 0.4763,0.4714 0.8484,1.0271 1.1215,1.6624 0.273,0.6353 0.4068,1.3152 0.4068,2.0447l0 1.6723c0,0.5212 -0.0593,1.0076 -0.1734,1.4541 -0.1193,0.4417 -0.278,0.8537 -0.4865,1.2209 -0.2085,0.3672 -0.4566,0.6996 -0.7445,0.9926 -0.2829,0.2977 -0.5904,0.5508 -0.9229,0.7642l2.5309 8.2032c0.0397,0.1341 0.0298,0.2632 -0.0298,0.3822 -0.0545,0.124 -0.1538,0.1836 -0.2879,0.1836l-3.1264 0c-0.1489,0 -0.2531,-0.0298 -0.3226,-0.0892 -0.0646,-0.0547 -0.119,-0.1838 -0.1587,-0.3773l-2.1391 -7.3695 -1.2802 0 0 7.3c0,0.3574 -0.1638,0.536 -0.4963,0.536l-2.9776 0c-0.3426,0 -0.5111,-0.1786 -0.5111,-0.536l0 -19.0221zm3.985 2.9678l0 5.4541 1.4688 0c0.5409,0 0.9579,-0.1688 1.2506,-0.4964 0.2928,-0.3275 0.4367,-0.7393 0.4367,-1.2356l0 -2.0049c0,-0.5262 -0.1538,-0.9429 -0.4665,-1.2507 -0.3076,-0.3127 -0.7196,-0.4665 -1.2356,-0.4665l-1.454 0zm9.9564 -2.9678c0,-0.1734 0.0446,-0.3124 0.1289,-0.4117 0.0894,-0.1043 0.2134,-0.1538 0.3822,-0.1538l2.9776 0c0.1686,0 0.2879,0.0495 0.3721,0.1538 0.0843,0.0993 0.1242,0.2383 0.1242,0.4117l0 19.0073c0,0.3672 -0.1638,0.5508 -0.4963,0.5508l-2.9776 0c-0.3426,0 -0.5111,-0.1836 -0.5111,-0.5508l0 -19.0073zm6.8052 4.1739c0,-0.7842 0.1488,-1.489 0.4416,-2.1142 0.2977,-0.6254 0.6999,-1.1562 1.206,-1.5932 0.5111,-0.4317 1.1016,-0.7641 1.7766,-0.9923 0.67,-0.2285 1.3795,-0.3426 2.1289,-0.3426 0.6949,0 1.3103,0.0845 1.8463,0.2531 0.531,0.1688 0.9924,0.3921 1.3795,0.6701 0.3871,0.2779 0.7097,0.5904 0.9727,0.9428 0.2632,0.3573 0.4714,0.7245 0.6254,1.1018 0.1538,0.377 0.2679,0.7543 0.3374,1.1264 0.0645,0.3724 0.0993,0.7147 0.0993,1.0225l0 1.3251c0,0.2232 -0.0298,0.3819 -0.0895,0.4714 -0.0544,0.0941 -0.1786,0.139 -0.3622,0.139l-2.8337 0c-0.1738,0 -0.2928,-0.0449 -0.3574,-0.1292 -0.0643,-0.0892 -0.0941,-0.2282 -0.0941,-0.4219l0 -1.2802c0,-0.2134 -0.0348,-0.4268 -0.0993,-0.6353 -0.0695,-0.2085 -0.1688,-0.392 -0.2977,-0.5609 -0.1341,-0.1636 -0.2928,-0.2927 -0.4865,-0.392 -0.1934,-0.0942 -0.4167,-0.1439 -0.6698,-0.1439 -0.4766,0 -0.8487,0.1638 -1.1267,0.4963 -0.2728,0.3275 -0.4117,0.7245 -0.4117,1.191l0 10.3324c0,0.2629 0.0396,0.5012 0.1239,0.7048 0.0794,0.2082 0.1885,0.392 0.3275,0.5458 0.1341,0.1587 0.298,0.278 0.4865,0.3573 0.1885,0.0843 0.3921,0.124 0.6153,0.124 0.2331,0 0.4466,-0.0446 0.6452,-0.1289 0.1984,-0.0894 0.3721,-0.2085 0.516,-0.3573 0.1489,-0.1489 0.2632,-0.3275 0.3425,-0.5261 0.0843,-0.1984 0.124,-0.4118 0.124,-0.6452l0 -2.8187 -1.0917 0c-0.2928,0 -0.4367,-0.1688 -0.4367,-0.4963l0 -2.1935c0,-0.3524 0.1439,-0.5261 0.4367,-0.5261l4.3027 0c0.3522,0 0.5259,0.1836 0.5259,0.5559l0 5.5928c0,0.7891 -0.139,1.4939 -0.4216,2.1191 -0.2829,0.6254 -0.6652,1.1565 -1.1464,1.5882 -0.4865,0.4367 -1.0523,0.7691 -1.7024,0.9973 -0.6501,0.2285 -1.3497,0.3426 -2.0942,0.3426 -0.7346,0 -1.4391,-0.1092 -2.1092,-0.3325 -0.6649,-0.2235 -1.2556,-0.551 -1.7667,-0.9827 -0.5061,-0.4318 -0.913,-0.9577 -1.2109,-1.5831 -0.3027,-0.6252 -0.4515,-1.3399 -0.4515,-2.144l0 -10.6596zm13.6486 -4.1739c0,-0.1734 0.0447,-0.3124 0.1289,-0.4117 0.0895,-0.1043 0.2134,-0.1538 0.3822,-0.1538l2.9777 0c0.1685,0 0.2878,0.0495 0.3721,0.1538 0.0843,0.0993 0.1242,0.2383 0.1242,0.4117l0 19.0073c0,0.3672 -0.1639,0.5508 -0.4963,0.5508l-2.9777 0c-0.3425,0 -0.5111,-0.1836 -0.5111,-0.5508l0 -19.0073zm7.1229 0c0,-0.1734 0.0446,-0.3124 0.1338,-0.4117 0.0846,-0.1043 0.2134,-0.1538 0.3773,-0.1538l2.7295 0c0.1289,0.0098 0.2482,0.0544 0.3672,0.1289 0.1141,0.0796 0.2035,0.1986 0.258,0.3674l3.608 10.7292 0.3623 1.6725 -0.0695 -1.5286 -0.1639 -10.8039c0,-0.1537 0.0446,-0.2878 0.1242,-0.397 0.0843,-0.1141 0.2183,-0.1685 0.4019,-0.1685l2.6898 0c0.1141,0 0.2282,0.0397 0.3325,0.1141 0.1091,0.0793 0.1587,0.2232 0.1587,0.4367l0 19.022c0,0.3672 -0.1836,0.5508 -0.5508,0.5508l-2.7046 0c-0.1341,0 -0.2681,-0.0347 -0.397,-0.1091 -0.1341,-0.0745 -0.2284,-0.1935 -0.2829,-0.3574l-3.5087 -10.2478 -0.377 -1.3995 0.0892 1.4539 0.1291 10.1091c0.0197,0.3672 -0.1488,0.5508 -0.5062,0.5508l-2.6898 0c-0.3425,0 -0.5111,-0.1836 -0.5111,-0.5508l0 -19.0073zm25.2862 19.0221c0.0941,0.3574 0.0049,0.536 -0.278,0.536l-3.0075 0c-0.1488,0 -0.2779,-0.0347 -0.392,-0.1091 -0.1191,-0.0745 -0.1886,-0.1987 -0.2085,-0.3722l-0.3771 -2.4268 -3.2556 0 -0.3622 2.4268c-0.0298,0.1735 -0.1043,0.2977 -0.2184,0.3722 -0.119,0.0744 -0.2432,0.1091 -0.377,0.1091l-3.0124 0c-0.2878,0 -0.3871,-0.1836 -0.2878,-0.5508l4.0247 -19.0617c0.0892,-0.3426 0.278,-0.5111 0.5658,-0.5111l2.5905 0c0.2977,0 0.4961,0.1685 0.5806,0.5111l4.0149 19.0765zm-7.0371 -5.454l2.2977 0 -0.9926 -6.4565 -0.1587 -1.7021 -0.159 1.7021 -0.9874 6.4565zm9.2269 -13.5681c0,-0.1734 0.0446,-0.3124 0.1288,-0.4117 0.0895,-0.1043 0.2135,-0.1538 0.3823,-0.1538l2.9776 0c0.1686,0 0.2878,0.0495 0.3721,0.1538 0.0843,0.0993 0.1242,0.2383 0.1242,0.4117l0 16.0544 5.0023 0c0.278,0 0.4219,0.1638 0.4219,0.4963l0 2.4714c0,0.3574 -0.1439,0.536 -0.4219,0.536l-8.4762 0c-0.3426,0 -0.5111,-0.1836 -0.5111,-0.5508l0 -19.0073z"/>
   <path id="_120779608" class="fil1" d="M102.425 103.86c0,-0.1735 0.0446,-0.3125 0.1288,-0.4118 0.0895,-0.1042 0.2134,-0.1537 0.3823,-0.1537l4.7243 0c0.7841,0 1.4988,0.1239 2.144,0.377 0.6451,0.2531 1.1959,0.6055 1.6575,1.0572 0.4615,0.4465 0.8189,0.9825 1.0719,1.5979 0.2482,0.6153 0.3773,1.2853 0.3773,2.0148l0 1.4392c0,0.4071 -0.0695,0.789 -0.2134,1.1513 -0.139,0.3674 -0.3176,0.69 -0.531,0.9778 -0.2135,0.2827 -0.4468,0.521 -0.7048,0.7046 -0.2581,0.1836 -0.5013,0.2979 -0.7344,0.3474 0.2134,0.0597 0.4616,0.1738 0.7494,0.3475 0.2878,0.1787 0.5606,0.4167 0.8238,0.7295 0.258,0.3127 0.4813,0.6946 0.6649,1.1562 0.1836,0.4616 0.278,1.0074 0.278,1.6378l0 1.8014c0,0.7097 -0.144,1.3549 -0.4269,1.9404 -0.2878,0.5855 -0.6651,1.0917 -1.1365,1.5136 -0.4714,0.4219 -1.0123,0.7494 -1.6277,0.9825 -0.6153,0.2334 -1.2556,0.3475 -1.9106,0.3475l-5.2058 0c-0.3426,0 -0.5111,-0.1836 -0.5111,-0.5508l0 -19.0073zm3.692 10.8038l0 5.2505 1.5286 0c0.258,0 0.4914,-0.0495 0.6898,-0.1439 0.1986,-0.0991 0.3672,-0.2282 0.5061,-0.3869 0.144,-0.1589 0.2482,-0.3376 0.3128,-0.536 0.0695,-0.1986 0.1042,-0.397 0.1042,-0.5907l0 -1.7765c0,-0.3078 -0.0446,-0.5757 -0.139,-0.8041 -0.0894,-0.2282 -0.2134,-0.4167 -0.3721,-0.5705 -0.154,-0.1491 -0.3327,-0.2583 -0.536,-0.3327 -0.2035,-0.0744 -0.4169,-0.1092 -0.6402,-0.1092l-1.4542 0zm0 -7.836l0 4.7096 1.2952 0c0.1639,0 0.3475,-0.0198 0.5461,-0.0646 0.1984,-0.0446 0.3869,-0.124 0.5607,-0.243 0.1737,-0.1143 0.3176,-0.273 0.4366,-0.4766 0.1144,-0.2033 0.1738,-0.4613 0.1738,-0.7691l0 -1.4244c0,-0.6055 -0.1587,-1.0421 -0.4813,-1.3199 -0.3177,-0.273 -0.7147,-0.412 -1.191,-0.412l-1.3401 0zm20.512 16.0543c0.0942,0.3573 0.0049,0.536 -0.278,0.536l-3.0074 0c-0.1489,0 -0.278,-0.0347 -0.3921,-0.1092 -0.119,-0.0744 -0.1885,-0.1986 -0.2085,-0.3721l-0.377 -2.4268 -3.2556 0 -0.3623 2.4268c-0.0298,0.1735 -0.1042,0.2977 -0.2183,0.3721 -0.119,0.0745 -0.2432,0.1092 -0.3771,0.1092l-3.0123 0c-0.2879,0 -0.3872,-0.1836 -0.2879,-0.5508l4.0248 -19.0617c0.0892,-0.3426 0.2779,-0.5111 0.5658,-0.5111l2.5905 0c0.2976,0 0.496,0.1685 0.5805,0.5111l4.0149 19.0765zm-7.0371 -5.454l2.2977 0 -0.9926 -6.4565 -0.1587 -1.7021 -0.1589 1.7021 -0.9875 6.4565zm9.3657 -13.5681c0,-0.1735 0.0446,-0.3125 0.1288,-0.4118 0.0895,-0.1042 0.2134,-0.1537 0.3823,-0.1537l5.2504 0c0.7642,0 1.4789,0.1389 2.1339,0.4117 0.6602,0.278 1.2309,0.6551 1.7023,1.1317 0.4764,0.4714 0.8485,1.0271 1.1216,1.6624 0.273,0.6353 0.4068,1.3152 0.4068,2.0446l0 1.6723c0,0.5212 -0.0594,1.0077 -0.1735,1.4542 -0.1192,0.4416 -0.2779,0.8537 -0.4864,1.2208 -0.2085,0.3672 -0.4567,0.6997 -0.7445,0.9927 -0.2829,0.2977 -0.5905,0.5508 -0.9229,0.7642l2.5309 8.2032c0.0396,0.1341 0.0298,0.2632 -0.0298,0.3822 -0.0545,0.124 -0.1538,0.1836 -0.2879,0.1836l-3.1265 0c-0.1488,0 -0.2531,-0.0298 -0.3225,-0.0892 -0.0646,-0.0547 -0.1191,-0.1838 -0.1587,-0.3773l-2.1391 -7.3695 -1.2802 0 0 7.3c0,0.3573 -0.1639,0.536 -0.4963,0.536l-2.9776 0c-0.3426,0 -0.5111,-0.1787 -0.5111,-0.536l0 -19.0221zm3.985 2.9678l0 5.454 1.4687 0c0.541,0 0.9579,-0.1688 1.2507,-0.4963 0.2927,-0.3275 0.4367,-0.7393 0.4367,-1.2356l0 -2.005c0,-0.5261 -0.1538,-0.9428 -0.4665,-1.2506 -0.3076,-0.3127 -0.7196,-0.4665 -1.2356,-0.4665l-1.454 0z"/>
   <path id="_120779464" class="fil2" d="M102.496 132.141l0.5019 0c0.0574,0 0.1049,-0.0015 0.141,-0.0054 0.0367,-0.0038 0.0659,-0.0115 0.0888,-0.0229 0.0223,-0.0115 0.0414,-0.0284 0.0567,-0.0514 0.0161,-0.023 0.0322,-0.0528 0.0491,-0.0904l0.4183 -0.878 0.4275 0.878c0.0184,0.0383 0.0368,0.0697 0.0544,0.0927 0.0169,0.023 0.0368,0.0399 0.0598,0.0506 0.023,0.0115 0.0513,0.0184 0.0866,0.0222 0.0352,0.0031 0.0797,0.0046 0.1348,0.0046l0.5195 0c0.0444,-0.0008 0.0766,-0.0092 0.0973,-0.0268 0.0207,-0.0169 0.0307,-0.0399 0.0299,-0.0682 0,-0.0284 -0.0107,-0.059 -0.0307,-0.0935l-0.8688 -1.4848 0.8229 -1.4114c0.0184,-0.0329 0.0283,-0.0628 0.0291,-0.0896 0.0015,-0.0268 -0.0077,-0.0483 -0.0268,-0.0644 -0.0184,-0.0168 -0.0491,-0.0252 -0.0897,-0.0252l-0.524 0c-0.0621,-0.0008 -0.1119,0.0023 -0.1487,0.0092 -0.0368,0.0068 -0.0674,0.0214 -0.0912,0.0444 -0.0237,0.023 -0.0467,0.059 -0.0682,0.1073l-0.4045 0.8182 -0.3999 -0.8182c-0.0223,-0.0483 -0.0453,-0.0843 -0.069,-0.1073 -0.0238,-0.023 -0.0559,-0.0376 -0.0958,-0.0444 -0.0406,-0.0069 -0.0957,-0.01 -0.1662,-0.0092l-0.4973 0c-0.059,0.0007 -0.0958,0.0183 -0.1088,0.0513 -0.0138,0.0337 -0.0061,0.0758 0.0215,0.1279l0.8144 1.416 -0.8558 1.4802c-0.0322,0.056 -0.0406,0.1012 -0.0261,0.1356 0.0146,0.0345 0.0544,0.0521 0.118,0.0529zm5.2878 0l0.4689 0c0.0475,0.0008 0.0851,-0.0061 0.1119,-0.0199 0.0276,-0.0138 0.0498,-0.0383 0.0674,-0.072l0.6436 -1.1984c0.0421,-0.0789 0.0782,-0.1517 0.108,-0.2175 0.0291,-0.0659 0.0567,-0.1326 0.0805,-0.1985 0.0245,-0.0666 0.049,-0.141 0.0743,-0.2214 0.0253,-0.0812 0.0536,-0.1762 0.0866,-0.285l0.0322 0c-0.0238,0.1088 -0.0445,0.2068 -0.0606,0.2949 -0.0168,0.0874 -0.0298,0.1717 -0.0398,0.2521 -0.01,0.0812 -0.0176,0.1663 -0.0215,0.2544 -0.0046,0.0889 -0.0069,0.1892 -0.0069,0.3003l0 0.9179c-0.0007,0.0705 0.0123,0.1203 0.0406,0.1502 0.0276,0.0291 0.0751,0.0437 0.1433,0.0429l0.4459 0c0.0682,0.0008 0.1157,-0.0138 0.1441,-0.0421 0.0276,-0.0292 0.0406,-0.0782 0.0398,-0.1464l0 -2.8824c0.0008,-0.0705 -0.0122,-0.1203 -0.0398,-0.1501 -0.0284,-0.0291 -0.0759,-0.0437 -0.1441,-0.0429l-0.4735 0c-0.0475,0 -0.0842,0.0069 -0.1111,0.0214 -0.0268,0.0153 -0.0482,0.0383 -0.0635,0.0705l-0.6344 1.1845c-0.0445,0.0828 -0.082,0.1586 -0.1134,0.2276 -0.0315,0.0689 -0.0598,0.1379 -0.0843,0.2061 -0.0245,0.0682 -0.0491,0.1425 -0.0736,0.2229 -0.0245,0.0805 -0.0521,0.174 -0.0827,0.2797l-0.0322 0c0.0192,-0.0866 0.036,-0.1655 0.0506,-0.2375 0.0145,-0.072 0.0268,-0.1402 0.0367,-0.2054 0.01,-0.0643 0.0177,-0.1294 0.0238,-0.1953 0.0061,-0.0659 0.0107,-0.1356 0.0138,-0.2107 0.0023,-0.0744 0.0038,-0.1571 0.0038,-0.2483l0 -0.9271c0.0008,-0.0682 -0.0122,-0.1172 -0.0406,-0.1463 -0.0276,-0.0291 -0.0751,-0.0429 -0.1433,-0.0421l-0.4505 0c-0.0659,-0.0008 -0.1134,0.013 -0.1417,0.0421 -0.0291,0.0291 -0.0429,0.0781 -0.0422,0.1463l0 2.887c-0.0007,0.0682 0.0131,0.1165 0.0422,0.1456 0.0283,0.0291 0.0758,0.0437 0.1417,0.0429zm5.2089 0l0.4184 0c0.0658,0.0008 0.1111,-0.0123 0.1371,-0.0406 0.0261,-0.0284 0.0383,-0.0774 0.0375,-0.1479l0 -0.8504c0,-0.0759 -0.0007,-0.1525 -0.003,-0.2276 -0.0023,-0.0759 -0.0077,-0.1571 -0.0169,-0.2429 -0.0084,-0.0866 -0.023,-0.1831 -0.0421,-0.2904 -0.0192,-0.1072 -0.046,-0.2306 -0.0805,-0.37l0.0414 0c0.0276,0.0996 0.0559,0.1984 0.0858,0.2942 0.0291,0.0965 0.0598,0.1877 0.0904,0.2743 0.0314,0.0866 0.0629,0.1647 0.095,0.236l0.2345 0.547c0.0199,0.0498 0.0444,0.0843 0.0751,0.1042 0.0306,0.0199 0.0728,0.0299 0.1272,0.0291l0.285 0c0.0391,0 0.0712,-0.0046 0.0965,-0.0145 0.0245,-0.0092 0.0452,-0.0238 0.0613,-0.0437 0.0161,-0.0192 0.0314,-0.0444 0.0445,-0.0751l0.2298 -0.547c0.0322,-0.0744 0.0659,-0.1563 0.0996,-0.2452 0.0337,-0.0897 0.0674,-0.1816 0.0996,-0.2774 0.0322,-0.095 0.0628,-0.1892 0.0904,-0.2819l0.0414 0c-0.0398,0.1348 -0.0705,0.2559 -0.0912,0.3639 -0.0214,0.108 -0.0368,0.2061 -0.0452,0.2942 -0.0084,0.0881 -0.013,0.1701 -0.0138,0.246 -0.0015,0.0766 -0.0015,0.1501 -0.0015,0.2222l0 0.855c-0.0008,0.0705 0.0123,0.1195 0.0406,0.1479 0.0276,0.0283 0.0751,0.0414 0.1433,0.0406l0.4321 0c0.0682,0.0008 0.1149,-0.0123 0.1418,-0.0406 0.026,-0.0284 0.039,-0.0774 0.0375,-0.1479l0 -2.887c0.0015,-0.0704 -0.0115,-0.1195 -0.0375,-0.1478 -0.0269,-0.0284 -0.0736,-0.0414 -0.1418,-0.0406l-0.4413 0c-0.0452,-0.0008 -0.082,0.0023 -0.1096,0.0092 -0.0283,0.0068 -0.0513,0.0214 -0.0705,0.0421 -0.0184,0.0214 -0.0367,0.0536 -0.0544,0.0958l-0.6895 1.5446 -0.6804 -1.5492c-0.0161,-0.0391 -0.0345,-0.0698 -0.0544,-0.0904 -0.0199,-0.0207 -0.0444,-0.0345 -0.0751,-0.0422 -0.0306,-0.0069 -0.0705,-0.0107 -0.1187,-0.0099l-0.4184 0c-0.0636,-0.0008 -0.1095,0.0122 -0.1379,0.0406 -0.0283,0.0283 -0.0421,0.0774 -0.0414,0.1478l0 2.887c-0.0007,0.0705 0.0131,0.1195 0.0414,0.1479 0.0284,0.0283 0.0743,0.0414 0.1379,0.0406zm7.2546 0l0.4459 0c0.0705,0.0008 0.1195,-0.0138 0.1479,-0.0429 0.0283,-0.0291 0.0413,-0.0774 0.0406,-0.1456l0 -2.887c0.0007,-0.0682 -0.0123,-0.1172 -0.0406,-0.1463 -0.0284,-0.0291 -0.0774,-0.0429 -0.1479,-0.0421l-0.4459 0c-0.0682,-0.0008 -0.1157,0.013 -0.1433,0.0421 -0.0284,0.0291 -0.0414,0.0781 -0.0406,0.1463l0 1.1677c-0.0314,0.01 -0.0751,0.0192 -0.1303,0.0276 -0.0551,0.0084 -0.1256,0.013 -0.2099,0.0138 -0.1157,0 -0.2084,-0.0153 -0.2766,-0.0475 -0.069,-0.0314 -0.1188,-0.0805 -0.1486,-0.1471 -0.0299,-0.0667 -0.0445,-0.1517 -0.0437,-0.2559l0 -0.7586c0.0008,-0.0682 -0.0123,-0.1172 -0.0406,-0.1463 -0.0276,-0.0291 -0.0751,-0.0429 -0.1433,-0.0421l-0.4459 0c-0.0682,-0.0008 -0.1157,0.013 -0.1433,0.0421 -0.0283,0.0291 -0.0414,0.0781 -0.0406,0.1463l0 0.754c-0.0008,0.1969 0.0199,0.3708 0.0613,0.5217 0.0414,0.1517 0.1073,0.2789 0.1992,0.3824 0.0912,0.1034 0.2122,0.1815 0.3624,0.2344 0.1494,0.0529 0.3325,0.0797 0.5494,0.0797 0.0743,0 0.1394,-0.0023 0.1946,-0.0054 0.0551,-0.0038 0.1034,-0.0092 0.144,-0.0153 0.0414,-0.0061 0.0789,-0.013 0.1119,-0.0207l0 0.9562c-0.0008,0.0682 0.0122,0.1165 0.0406,0.1456 0.0276,0.0291 0.0751,0.0437 0.1433,0.0429zm3.4895 0l0.4689 0c0.0475,0.0008 0.0851,-0.0061 0.1119,-0.0199 0.0276,-0.0138 0.0498,-0.0383 0.0674,-0.072l0.6436 -1.1984c0.0421,-0.0789 0.0782,-0.1517 0.108,-0.2175 0.0291,-0.0659 0.0567,-0.1326 0.0805,-0.1985 0.0245,-0.0666 0.049,-0.141 0.0743,-0.2214 0.0253,-0.0812 0.0536,-0.1762 0.0866,-0.285l0.0322 0c-0.0238,0.1088 -0.0445,0.2068 -0.0606,0.2949 -0.0168,0.0874 -0.0298,0.1717 -0.0398,0.2521 -0.01,0.0812 -0.0176,0.1663 -0.0215,0.2544 -0.0046,0.0889 -0.0069,0.1892 -0.0069,0.3003l0 0.9179c-0.0007,0.0705 0.0123,0.1203 0.0406,0.1502 0.0276,0.0291 0.0751,0.0437 0.1433,0.0429l0.4459 0c0.0682,0.0008 0.1157,-0.0138 0.1441,-0.0421 0.0276,-0.0292 0.0406,-0.0782 0.0398,-0.1464l0 -2.8824c0.0008,-0.0705 -0.0122,-0.1203 -0.0398,-0.1501 -0.0284,-0.0291 -0.0759,-0.0437 -0.1441,-0.0429l-0.4735 0c-0.0475,0 -0.0842,0.0069 -0.1111,0.0214 -0.0268,0.0153 -0.0482,0.0383 -0.0635,0.0705l-0.6344 1.1845c-0.0445,0.0828 -0.082,0.1586 -0.1134,0.2276 -0.0315,0.0689 -0.0598,0.1379 -0.0843,0.2061 -0.0245,0.0682 -0.0491,0.1425 -0.0736,0.2229 -0.0245,0.0805 -0.0521,0.174 -0.0827,0.2797l-0.0322 0c0.0192,-0.0866 0.036,-0.1655 0.0506,-0.2375 0.0145,-0.072 0.0268,-0.1402 0.0367,-0.2054 0.01,-0.0643 0.0177,-0.1294 0.0238,-0.1953 0.0061,-0.0659 0.0107,-0.1356 0.0138,-0.2107 0.0023,-0.0744 0.0038,-0.1571 0.0038,-0.2483l0 -0.9271c0.0008,-0.0682 -0.0122,-0.1172 -0.0406,-0.1463 -0.0276,-0.0291 -0.0751,-0.0429 -0.1433,-0.0421l-0.4505 0c-0.0659,-0.0008 -0.1134,0.013 -0.1417,0.0421 -0.0291,0.0291 -0.0429,0.0781 -0.0422,0.1463l0 2.887c-0.0007,0.0682 0.0131,0.1165 0.0422,0.1456 0.0283,0.0291 0.0758,0.0437 0.1417,0.0429zm6.2341 0.069c0.216,-0.0008 0.4045,-0.0315 0.5662,-0.0928 0.1616,-0.0612 0.2973,-0.1509 0.4061,-0.2681 0.1088,-0.118 0.1923,-0.2605 0.2505,-0.4298 0.023,-0.0636 0.0261,-0.1142 0.0077,-0.1525 -0.0177,-0.0376 -0.059,-0.0667 -0.1226,-0.0866l-0.423 -0.1379c-0.0429,-0.0138 -0.0781,-0.0199 -0.1065,-0.0169 -0.0283,0.0031 -0.0528,0.0161 -0.072,0.0399 -0.0191,0.023 -0.0368,0.0582 -0.0513,0.1057 -0.0345,0.1057 -0.0897,0.1831 -0.1647,0.2329 -0.0759,0.0498 -0.1709,0.0728 -0.2858,0.0705 -0.1648,0.0008 -0.2851,-0.0406 -0.3609,-0.1249 -0.0759,-0.0842 -0.1134,-0.216 -0.1126,-0.3946l0 -0.8918c-0.0008,-0.1785 0.0375,-0.3103 0.1141,-0.3946 0.0774,-0.0843 0.1969,-0.1256 0.3594,-0.1249 0.1172,-0.0007 0.2137,0.0223 0.2896,0.0705 0.0758,0.0483 0.131,0.1257 0.1655,0.2329 0.0145,0.0453 0.0314,0.0797 0.049,0.1012 0.0184,0.0222 0.0414,0.0345 0.069,0.036 0.0276,0.0023 0.0636,-0.0038 0.1072,-0.0176l0.4184 -0.1287c0.062,-0.02 0.1011,-0.0491 0.1187,-0.0866 0.0177,-0.0383 0.0146,-0.0889 -0.0084,-0.1525 -0.0582,-0.1678 -0.141,-0.3103 -0.2482,-0.4275 -0.1073,-0.118 -0.2414,-0.2077 -0.4015,-0.2697 -0.1601,-0.0621 -0.3479,-0.0927 -0.5639,-0.0935 -0.2751,0.0008 -0.508,0.0521 -0.6996,0.154 -0.1915,0.1011 -0.3371,0.246 -0.4367,0.4337 -0.0996,0.1877 -0.1501,0.4114 -0.1509,0.6719l0 0.8827c0.0008,0.2605 0.0513,0.4842 0.1509,0.6719 0.0996,0.1877 0.2452,0.3325 0.4367,0.4337 0.1916,0.1011 0.4245,0.1524 0.6996,0.154zm4.5376 -0.069l0.4505 0c0.0659,0.0008 0.1134,-0.0123 0.1418,-0.0406 0.0291,-0.0276 0.0429,-0.0751 0.0421,-0.1433l0 -2.3445 0.6298 0c0.0659,0.0008 0.1134,-0.0138 0.1418,-0.0429 0.0291,-0.0299 0.0429,-0.0797 0.0421,-0.1502l0 -0.354c0.0008,-0.0682 -0.013,-0.1172 -0.0421,-0.1463 -0.0284,-0.0291 -0.0759,-0.0429 -0.1418,-0.0421l-2.0733 0c-0.0681,-0.0008 -0.1157,0.013 -0.1432,0.0421 -0.0284,0.0291 -0.0414,0.0781 -0.0406,0.1463l0 0.354c-0.0008,0.0705 0.0122,0.1203 0.0406,0.1502 0.0275,0.0291 0.0751,0.0437 0.1432,0.0429l0.6252 0 0 2.3445c-0.0007,0.0682 0.0131,0.1157 0.0422,0.1433 0.0283,0.0283 0.0758,0.0414 0.1417,0.0406zm4.101 0l0.4505 0c0.0682,0.0008 0.1157,-0.0138 0.1433,-0.0429 0.0284,-0.0291 0.0414,-0.0774 0.0406,-0.1456l0 -1.0941 0.1195 0c0.0621,0 0.1119,0.0077 0.1502,0.0245 0.0376,0.0169 0.0697,0.0437 0.095,0.0812 0.0261,0.0368 0.0514,0.0859 0.0766,0.1471l0.3678 0.8505c0.0207,0.0498 0.0421,0.0881 0.0667,0.1142 0.0237,0.0253 0.0559,0.0429 0.0965,0.0521 0.0414,0.0092 0.0965,0.0138 0.1678,0.013l0.4321 0c0.0475,-0.0008 0.0812,-0.01 0.1035,-0.0283 0.0214,-0.0184 0.0321,-0.043 0.0321,-0.0736 0.0008,-0.0314 -0.0084,-0.0667 -0.0252,-0.105l-0.5241 -1.1355c-0.0299,-0.0643 -0.059,-0.1233 -0.0874,-0.1762 -0.0275,-0.0528 -0.0574,-0.1003 -0.0888,-0.1425 -0.0315,-0.0421 -0.0682,-0.0781 -0.1088,-0.1088l0.7539 -1.301c0.0299,-0.0567 0.036,-0.1026 0.0176,-0.1379 -0.0176,-0.036 -0.059,-0.0544 -0.1233,-0.0551l-0.4644 0c-0.0674,-0.0008 -0.1202,0.003 -0.1578,0.0107 -0.0375,0.0084 -0.0674,0.0237 -0.0904,0.0467 -0.023,0.0238 -0.046,0.0583 -0.069,0.1035l-0.5746 1.0895 -0.0643 0 -0.1012 0 0 -1.062c0.0008,-0.0682 -0.0122,-0.1172 -0.0406,-0.1463 -0.0276,-0.0291 -0.0751,-0.0429 -0.1433,-0.0421l-0.4505 0c-0.0659,-0.0008 -0.1134,0.013 -0.1417,0.0421 -0.0291,0.0291 -0.0429,0.0781 -0.0422,0.1463l0 2.887c-0.0007,0.0682 0.0131,0.1165 0.0422,0.1456 0.0283,0.0291 0.0758,0.0437 0.1417,0.0429zm4.6756 0l0.4275 0c0.0682,0 0.1226,-0.0054 0.1625,-0.0161 0.0398,-0.0107 0.0705,-0.0291 0.0919,-0.0552 0.0215,-0.0268 0.0376,-0.0628 0.049,-0.108l0.1104 -0.3907 0.9378 0 0.1011 0.3907c0.0115,0.0452 0.0284,0.0812 0.0506,0.108 0.0222,0.0261 0.0544,0.0445 0.0965,0.0552 0.0422,0.0107 0.0989,0.0161 0.1701,0.0161l0.4413 0c0.0644,0 0.1058,-0.0161 0.1257,-0.0475 0.0199,-0.0307 0.0191,-0.0766 -0.0015,-0.1364l-0.9746 -2.9329c-0.0176,-0.0567 -0.0445,-0.095 -0.0789,-0.1165 -0.0353,-0.0214 -0.0828,-0.0314 -0.1418,-0.0306l-0.4919 0c-0.0406,-0.0008 -0.0751,0.0038 -0.1034,0.0115 -0.0276,0.0084 -0.0506,0.0245 -0.069,0.0467 -0.0184,0.023 -0.0344,0.0559 -0.0482,0.0981l-0.97 2.9237c-0.0215,0.0598 -0.0238,0.1057 -0.0062,0.1364 0.0169,0.0314 0.0575,0.0475 0.1211,0.0475zm1.0298 -1.232l0.1609 -0.6298c0.0199,-0.0774 0.0367,-0.1571 0.0505,-0.2375 0.0146,-0.0805 0.0261,-0.1556 0.0353,-0.2261 0.0084,-0.0697 0.0153,-0.1287 0.0199,-0.1754l0.0322 0c0.0046,0.0467 0.0115,0.1049 0.0214,0.1747 0.01,0.0697 0.0222,0.1448 0.0368,0.2252 0.0146,0.0805 0.0322,0.1602 0.0521,0.2391l0.1609 0.6298 -0.57 0zm7.6084 1.232l0.4505 0c0.0682,0.0008 0.1157,-0.0138 0.1433,-0.0429 0.0284,-0.0291 0.0414,-0.0774 0.0406,-0.1456l0 -1.0941 0.1195 0c0.0621,0 0.1119,0.0077 0.1502,0.0245 0.0376,0.0169 0.0697,0.0437 0.095,0.0812 0.0261,0.0368 0.0514,0.0859 0.0766,0.1471l0.3678 0.8505c0.0207,0.0498 0.0421,0.0881 0.0667,0.1142 0.0237,0.0253 0.0559,0.0429 0.0965,0.0521 0.0414,0.0092 0.0965,0.0138 0.1678,0.013l0.4321 0c0.0475,-0.0008 0.0812,-0.01 0.1035,-0.0283 0.0214,-0.0184 0.0321,-0.043 0.0321,-0.0736 0.0008,-0.0314 -0.0084,-0.0667 -0.0252,-0.105l-0.5241 -1.1355c-0.0299,-0.0643 -0.059,-0.1233 -0.0874,-0.1762 -0.0275,-0.0528 -0.0574,-0.1003 -0.0888,-0.1425 -0.0315,-0.0421 -0.0682,-0.0781 -0.1088,-0.1088l0.7539 -1.301c0.0299,-0.0567 0.036,-0.1026 0.0176,-0.1379 -0.0176,-0.036 -0.059,-0.0544 -0.1233,-0.0551l-0.4644 0c-0.0674,-0.0008 -0.1202,0.003 -0.1578,0.0107 -0.0375,0.0084 -0.0674,0.0237 -0.0904,0.0467 -0.023,0.0238 -0.046,0.0583 -0.069,0.1035l-0.5746 1.0895 -0.0643 0 -0.1012 0 0 -1.062c0.0008,-0.0682 -0.0122,-0.1172 -0.0406,-0.1463 -0.0276,-0.0291 -0.0751,-0.0429 -0.1433,-0.0421l-0.4505 0c-0.0659,-0.0008 -0.1134,0.013 -0.1417,0.0421 -0.0291,0.0291 -0.0429,0.0781 -0.0422,0.1463l0 2.887c-0.0007,0.0682 0.0131,0.1165 0.0422,0.1456 0.0283,0.0291 0.0758,0.0437 0.1417,0.0429zm4.9744 0l0.4505 0c0.0682,0.0008 0.1157,-0.0138 0.1433,-0.0429 0.0284,-0.0291 0.0414,-0.0774 0.0406,-0.1456l0 -0.8367 0.4873 0c0.2299,-0.0007 0.4275,-0.0452 0.5938,-0.1325 0.167,-0.0873 0.2957,-0.2145 0.3862,-0.38 0.0904,-0.1663 0.1363,-0.3678 0.1371,-0.6045 -0.0015,-0.2368 -0.0475,-0.4383 -0.1394,-0.6053 -0.092,-0.1671 -0.2215,-0.295 -0.3893,-0.3831 -0.167,-0.0881 -0.3647,-0.1326 -0.593,-0.1333l-1.1171 0c-0.0659,-0.0008 -0.1134,0.013 -0.1417,0.0421 -0.0291,0.0291 -0.0429,0.0781 -0.0422,0.1463l0 2.887c-0.0007,0.0682 0.0131,0.1165 0.0422,0.1456 0.0283,0.0291 0.0758,0.0437 0.1417,0.0429zm0.6344 -1.7607l0 -0.7677 0.4275 0c0.0767,0.0008 0.1418,0.0169 0.1954,0.049 0.0529,0.0322 0.0935,0.0774 0.1211,0.1349 0.0283,0.0574 0.0421,0.1249 0.0421,0.2023 -0.0007,0.1187 -0.0322,0.2114 -0.095,0.2788 -0.062,0.0675 -0.1502,0.1012 -0.2636,0.1027l-0.4275 0zm5.3376 1.8297c0.2781,-0.0016 0.5133,-0.0529 0.7056,-0.154 0.1931,-0.1012 0.3394,-0.246 0.4398,-0.4337 0.0996,-0.1877 0.1502,-0.4114 0.1509,-0.6719l0 -0.8827c-0.0007,-0.2605 -0.0513,-0.4842 -0.1509,-0.6719 -0.1004,-0.1877 -0.2467,-0.3326 -0.4398,-0.4337 -0.1923,-0.1019 -0.4275,-0.1532 -0.7056,-0.154 -0.2782,0.0008 -0.5134,0.0521 -0.7057,0.154 -0.1931,0.1011 -0.3394,0.246 -0.4398,0.4337 -0.0996,0.1877 -0.1501,0.4114 -0.1509,0.6719l0 0.8827c0.0008,0.2605 0.0513,0.4842 0.1509,0.6719 0.1004,0.1877 0.2467,0.3325 0.4398,0.4337 0.1923,0.1011 0.4275,0.1524 0.7057,0.154zm0 -0.7356c-0.1563,0 -0.2751,-0.0421 -0.3563,-0.1256 -0.0812,-0.0835 -0.1218,-0.2077 -0.1218,-0.3709l0 -0.9378c0,-0.1632 0.0406,-0.2873 0.1218,-0.3708 0.0812,-0.0835 0.2,-0.1257 0.3563,-0.1257 0.157,0 0.2758,0.0422 0.3562,0.1257 0.0813,0.0835 0.1219,0.2076 0.1219,0.3708l0 0.9378c0,0.1632 -0.0406,0.2874 -0.1219,0.3709 -0.0804,0.0835 -0.1992,0.1256 -0.3562,0.1256zm5.0893 0.7356c0.216,-0.0008 0.4045,-0.0315 0.5662,-0.0928 0.1616,-0.0612 0.2973,-0.1509 0.4061,-0.2681 0.1088,-0.118 0.1923,-0.2605 0.2505,-0.4298 0.023,-0.0636 0.0261,-0.1142 0.0077,-0.1525 -0.0177,-0.0376 -0.059,-0.0667 -0.1226,-0.0866l-0.423 -0.1379c-0.0429,-0.0138 -0.0781,-0.0199 -0.1065,-0.0169 -0.0283,0.0031 -0.0528,0.0161 -0.072,0.0399 -0.0191,0.023 -0.0368,0.0582 -0.0513,0.1057 -0.0345,0.1057 -0.0897,0.1831 -0.1647,0.2329 -0.0759,0.0498 -0.1709,0.0728 -0.2858,0.0705 -0.1648,0.0008 -0.2851,-0.0406 -0.3609,-0.1249 -0.0759,-0.0842 -0.1134,-0.216 -0.1126,-0.3946l0 -0.8918c-0.0008,-0.1785 0.0375,-0.3103 0.1141,-0.3946 0.0774,-0.0843 0.1969,-0.1256 0.3594,-0.1249 0.1172,-0.0007 0.2137,0.0223 0.2896,0.0705 0.0758,0.0483 0.131,0.1257 0.1655,0.2329 0.0145,0.0453 0.0314,0.0797 0.049,0.1012 0.0184,0.0222 0.0414,0.0345 0.069,0.036 0.0276,0.0023 0.0636,-0.0038 0.1072,-0.0176l0.4184 -0.1287c0.062,-0.02 0.1011,-0.0491 0.1187,-0.0866 0.0177,-0.0383 0.0146,-0.0889 -0.0084,-0.1525 -0.0582,-0.1678 -0.141,-0.3103 -0.2482,-0.4275 -0.1073,-0.118 -0.2414,-0.2077 -0.4015,-0.2697 -0.1601,-0.0621 -0.3479,-0.0927 -0.5639,-0.0935 -0.2751,0.0008 -0.508,0.0521 -0.6996,0.154 -0.1915,0.1011 -0.3371,0.246 -0.4367,0.4337 -0.0996,0.1877 -0.1501,0.4114 -0.1509,0.6719l0 0.8827c0.0008,0.2605 0.0513,0.4842 0.1509,0.6719 0.0996,0.1877 0.2452,0.3325 0.4367,0.4337 0.1916,0.1011 0.4245,0.1524 0.6996,0.154zm4.9468 0c0.216,-0.0008 0.4045,-0.0315 0.5662,-0.0928 0.1616,-0.0612 0.2973,-0.1509 0.4061,-0.2681 0.1088,-0.118 0.1923,-0.2605 0.2505,-0.4298 0.023,-0.0636 0.0261,-0.1142 0.0077,-0.1525 -0.0177,-0.0376 -0.059,-0.0667 -0.1226,-0.0866l-0.423 -0.1379c-0.0429,-0.0138 -0.0781,-0.0199 -0.1065,-0.0169 -0.0283,0.0031 -0.0528,0.0161 -0.072,0.0399 -0.0191,0.023 -0.0368,0.0582 -0.0513,0.1057 -0.0345,0.1057 -0.0897,0.1831 -0.1647,0.2329 -0.0759,0.0498 -0.1709,0.0728 -0.2858,0.0705 -0.1648,0.0008 -0.2851,-0.0406 -0.3609,-0.1249 -0.0759,-0.0842 -0.1134,-0.216 -0.1126,-0.3946l0 -0.8918c-0.0008,-0.1785 0.0375,-0.3103 0.1141,-0.3946 0.0774,-0.0843 0.1969,-0.1256 0.3594,-0.1249 0.1172,-0.0007 0.2137,0.0223 0.2896,0.0705 0.0758,0.0483 0.131,0.1257 0.1655,0.2329 0.0145,0.0453 0.0314,0.0797 0.049,0.1012 0.0184,0.0222 0.0414,0.0345 0.069,0.036 0.0276,0.0023 0.0636,-0.0038 0.1072,-0.0176l0.4184 -0.1287c0.062,-0.02 0.1011,-0.0491 0.1187,-0.0866 0.0177,-0.0383 0.0146,-0.0889 -0.0084,-0.1525 -0.0582,-0.1678 -0.141,-0.3103 -0.2482,-0.4275 -0.1073,-0.118 -0.2414,-0.2077 -0.4015,-0.2697 -0.1601,-0.0621 -0.3479,-0.0927 -0.5639,-0.0935 -0.2751,0.0008 -0.508,0.0521 -0.6996,0.154 -0.1915,0.1011 -0.3371,0.246 -0.4367,0.4337 -0.0996,0.1877 -0.1501,0.4114 -0.1509,0.6719l0 0.8827c0.0008,0.2605 0.0513,0.4842 0.1509,0.6719 0.0996,0.1877 0.2452,0.3325 0.4367,0.4337 0.1916,0.1011 0.4245,0.1524 0.6996,0.154zm4.956 0c0.2781,-0.0016 0.5133,-0.0529 0.7056,-0.154 0.1931,-0.1012 0.3394,-0.246 0.4398,-0.4337 0.0996,-0.1877 0.1502,-0.4114 0.1509,-0.6719l0 -0.8827c-0.0007,-0.2605 -0.0513,-0.4842 -0.1509,-0.6719 -0.1004,-0.1877 -0.2467,-0.3326 -0.4398,-0.4337 -0.1923,-0.1019 -0.4275,-0.1532 -0.7056,-0.154 -0.2782,0.0008 -0.5134,0.0521 -0.7057,0.154 -0.1931,0.1011 -0.3394,0.246 -0.4398,0.4337 -0.0996,0.1877 -0.1501,0.4114 -0.1509,0.6719l0 0.8827c0.0008,0.2605 0.0513,0.4842 0.1509,0.6719 0.1004,0.1877 0.2467,0.3325 0.4398,0.4337 0.1923,0.1011 0.4275,0.1524 0.7057,0.154zm0 -0.7356c-0.1563,0 -0.2751,-0.0421 -0.3563,-0.1256 -0.0812,-0.0835 -0.1218,-0.2077 -0.1218,-0.3709l0 -0.9378c0,-0.1632 0.0406,-0.2873 0.1218,-0.3708 0.0812,-0.0835 0.2,-0.1257 0.3563,-0.1257 0.157,0 0.2758,0.0422 0.3562,0.1257 0.0813,0.0835 0.1219,0.2076 0.1219,0.3708l0 0.9378c0,0.1632 -0.0406,0.2874 -0.1219,0.3709 -0.0804,0.0835 -0.1992,0.1256 -0.3562,0.1256zm4.0641 0.6666l1.232 0c0.2184,-0.0008 0.4046,-0.036 0.5594,-0.1073 0.1547,-0.0712 0.2735,-0.1739 0.3555,-0.3095 0.0819,-0.1356 0.1233,-0.2996 0.1241,-0.4934 -0.0015,-0.1992 -0.0399,-0.364 -0.1165,-0.4934 -0.0766,-0.1303 -0.1831,-0.2291 -0.3202,-0.2973l0 -0.0138c0.0766,-0.0559 0.1379,-0.1165 0.1846,-0.1816 0.0467,-0.0644 0.0805,-0.1364 0.1011,-0.2168 0.0215,-0.0797 0.0315,-0.1709 0.0315,-0.2728 -0.0016,-0.1846 -0.0422,-0.3425 -0.1226,-0.4727 -0.0805,-0.131 -0.1939,-0.2307 -0.3387,-0.3004 -0.1448,-0.0697 -0.3141,-0.1042 -0.5087,-0.1049l-1.1815 0c-0.0636,-0.0008 -0.1095,0.0138 -0.1379,0.0429 -0.0283,0.0298 -0.0421,0.0796 -0.0414,0.1501l0 2.8824c-0.0007,0.0682 0.0131,0.1165 0.0414,0.1456 0.0284,0.0291 0.0743,0.0437 0.1379,0.0429zm0.639 -1.9814l0 -0.593 0.4275 0c0.0859,-0.0007 0.154,0.023 0.2039,0.072 0.0505,0.0483 0.0758,0.1234 0.0766,0.2268 -0.0008,0.1027 -0.0261,0.1778 -0.0766,0.2245 -0.0499,0.0475 -0.118,0.0705 -0.2039,0.0697l-0.4275 0zm0 1.2872l0 -0.6298 0.5149 0c0.0575,0 0.108,0.0108 0.1517,0.0322 0.0444,0.0215 0.0789,0.0552 0.1042,0.1012 0.0253,0.0459 0.0375,0.1057 0.0383,0.1792 -0.0008,0.0721 -0.013,0.1311 -0.0383,0.1786 -0.0253,0.0467 -0.0598,0.0812 -0.1042,0.1042 -0.0437,0.0229 -0.0942,0.0344 -0.1517,0.0344l-0.5149 0zm5.3836 0.7632c0.2781,-0.0016 0.5133,-0.0529 0.7056,-0.154 0.1931,-0.1012 0.3394,-0.246 0.4398,-0.4337 0.0996,-0.1877 0.1502,-0.4114 0.1509,-0.6719l0 -0.8827c-0.0007,-0.2605 -0.0513,-0.4842 -0.1509,-0.6719 -0.1004,-0.1877 -0.2467,-0.3326 -0.4398,-0.4337 -0.1923,-0.1019 -0.4275,-0.1532 -0.7056,-0.154 -0.2782,0.0008 -0.5134,0.0521 -0.7057,0.154 -0.1931,0.1011 -0.3394,0.246 -0.4398,0.4337 -0.0996,0.1877 -0.1501,0.4114 -0.1509,0.6719l0 0.8827c0.0008,0.2605 0.0513,0.4842 0.1509,0.6719 0.1004,0.1877 0.2467,0.3325 0.4398,0.4337 0.1923,0.1011 0.4275,0.1524 0.7057,0.154zm0 -0.7356c-0.1563,0 -0.2751,-0.0421 -0.3563,-0.1256 -0.0812,-0.0835 -0.1218,-0.2077 -0.1218,-0.3709l0 -0.9378c0,-0.1632 0.0406,-0.2873 0.1218,-0.3708 0.0812,-0.0835 0.2,-0.1257 0.3563,-0.1257 0.157,0 0.2758,0.0422 0.3562,0.1257 0.0813,0.0835 0.1219,0.2076 0.1219,0.3708l0 0.9378c0,0.1632 -0.0406,0.2874 -0.1219,0.3709 -0.0804,0.0835 -0.1992,0.1256 -0.3562,0.1256zm4.0687 0.6666l0.4505 0c0.0682,0.0008 0.1157,-0.0138 0.1433,-0.0429 0.0284,-0.0291 0.0414,-0.0774 0.0406,-0.1456l0 -1.0941 0.1195 0c0.0621,0 0.1119,0.0077 0.1502,0.0245 0.0376,0.0169 0.0697,0.0437 0.095,0.0812 0.0261,0.0368 0.0514,0.0859 0.0766,0.1471l0.3678 0.8505c0.0207,0.0498 0.0421,0.0881 0.0667,0.1142 0.0237,0.0253 0.0559,0.0429 0.0965,0.0521 0.0414,0.0092 0.0965,0.0138 0.1678,0.013l0.4321 0c0.0475,-0.0008 0.0812,-0.01 0.1035,-0.0283 0.0214,-0.0184 0.0321,-0.043 0.0321,-0.0736 0.0008,-0.0314 -0.0084,-0.0667 -0.0252,-0.105l-0.5241 -1.1355c-0.0299,-0.0643 -0.059,-0.1233 -0.0874,-0.1762 -0.0275,-0.0528 -0.0574,-0.1003 -0.0888,-0.1425 -0.0315,-0.0421 -0.0682,-0.0781 -0.1088,-0.1088l0.7539 -1.301c0.0299,-0.0567 0.036,-0.1026 0.0176,-0.1379 -0.0176,-0.036 -0.059,-0.0544 -0.1233,-0.0551l-0.4644 0c-0.0674,-0.0008 -0.1202,0.003 -0.1578,0.0107 -0.0375,0.0084 -0.0674,0.0237 -0.0904,0.0467 -0.023,0.0238 -0.046,0.0583 -0.069,0.1035l-0.5746 1.0895 -0.0643 0 -0.1012 0 0 -1.062c0.0008,-0.0682 -0.0122,-0.1172 -0.0406,-0.1463 -0.0276,-0.0291 -0.0751,-0.0429 -0.1433,-0.0421l-0.4505 0c-0.0659,-0.0008 -0.1134,0.013 -0.1417,0.0421 -0.0291,0.0291 -0.0429,0.0781 -0.0422,0.1463l0 2.887c-0.0007,0.0682 0.0131,0.1165 0.0422,0.1456 0.0283,0.0291 0.0758,0.0437 0.1417,0.0429z"/>
  </g>
 </g>
</svg>
